# xmcd
#
# Track frame offsets:
#	150
#	17172
#	35295
#	55340
#	64200
#	82446
#	94852
#	108257
#	125712
#	135440
#	145168
#	162917
#	181549
#
# Disc length: 2788 seconds
#
# Revision: 2
# Processed by: cddbd v1.5.1PL2 Copyright (c) Steve Scherf et al.
# Submitted via: audiograbber 1.83.01
#
DISCID=b10ae20d
DTITLE=Enya - Shepherd Moons
DYEAR=1900
DGENRE=Blues
TTITLE0=Shepherd Moons
TTITLE1=Carribbean Blue
TTITLE2=How Can I Keep From Singing-
TTITLE3=Ebudae
TTITLE4=Angeles
TTITLE5=No Holly for Miss Quinn
TTITLE6=Book of Days
TTITLE7=Evacuee
TTITLE8=Lothlórien
TTITLE9=Lothlórien
TTITLE10=Marble Halls
TTITLE11=Afer Ventus
TTITLE12=Smaointe
EXTD=
EXTT0=
EXTT1=
EXTT2=
EXTT3=
EXTT4=
EXTT5=
EXTT6=
EXTT7=
EXTT8=
EXTT9=
EXTT10=
EXTT11=
EXTT12=
PLAYORDER=
